<svg width="22" height="22" viewBox="0 0 22 22" fill="none" xmlns="http://www.w3.org/2000/svg">
<path d="M4.37012 3.61864C4.37012 3.23836 4.52118 2.87367 4.79007 2.60477C5.05897 2.33588 5.42367 2.18481 5.80394 2.18481H11.5392C11.9195 2.18481 12.2842 2.33588 12.5531 2.60477C12.822 2.87367 12.9731 3.23836 12.9731 3.61864V7.92011H14.4069C14.7872 7.92011 15.1519 8.07117 15.4207 8.34007C15.6896 8.60896 15.8407 8.97366 15.8407 9.35393V17.001C15.8407 17.1277 15.7904 17.2493 15.7007 17.3389C15.6111 17.4286 15.4895 17.4789 15.3628 17.4789H12.9731V14.1333C12.9731 14.0066 12.9227 13.885 12.8331 13.7954C12.7434 13.7058 12.6219 13.6554 12.4951 13.6554H7.71571C7.58895 13.6554 7.46738 13.7058 7.37775 13.7954C7.28812 13.885 7.23776 14.0066 7.23776 14.1333V17.4789H4.84806C4.7213 17.4789 4.59973 17.4286 4.5101 17.3389C4.42047 17.2493 4.37012 17.1277 4.37012 17.001V3.61864ZM6.99879 6.48629C7.18893 6.48629 7.37128 6.41075 7.50573 6.27631C7.64017 6.14186 7.71571 5.95951 7.71571 5.76937C7.71571 5.57924 7.64017 5.39689 7.50573 5.26244C7.37128 5.12799 7.18893 5.05246 6.99879 5.05246C6.80866 5.05246 6.62631 5.12799 6.49186 5.26244C6.35741 5.39689 6.28188 5.57924 6.28188 5.76937C6.28188 5.95951 6.35741 6.14186 6.49186 6.27631C6.62631 6.41075 6.80866 6.48629 6.99879 6.48629ZM7.71571 8.63702C7.71571 8.44688 7.64017 8.26453 7.50573 8.13009C7.37128 7.99564 7.18893 7.92011 6.99879 7.92011C6.80866 7.92011 6.62631 7.99564 6.49186 8.13009C6.35741 8.26453 6.28188 8.44688 6.28188 8.63702C6.28188 8.82716 6.35741 9.00951 6.49186 9.14395C6.62631 9.2784 6.80866 9.35393 6.99879 9.35393C7.18893 9.35393 7.37128 9.2784 7.50573 9.14395C7.64017 9.00951 7.71571 8.82716 7.71571 8.63702ZM6.99879 12.2216C7.09294 12.2216 7.18616 12.203 7.27314 12.167C7.36012 12.131 7.43916 12.0782 7.50573 12.0116C7.5723 11.945 7.62511 11.866 7.66113 11.779C7.69716 11.692 7.71571 11.5988 7.71571 11.5047C7.71571 11.4105 7.69716 11.3173 7.66113 11.2303C7.62511 11.1433 7.5723 11.0643 7.50573 10.9977C7.43916 10.9312 7.36012 10.8784 7.27314 10.8423C7.18616 10.8063 7.09294 10.7878 6.99879 10.7878C6.80866 10.7878 6.62631 10.8633 6.49186 10.9977C6.35741 11.1322 6.28188 11.3145 6.28188 11.5047C6.28188 11.6948 6.35741 11.8772 6.49186 12.0116C6.62631 12.146 6.80866 12.2216 6.99879 12.2216ZM10.5834 5.76937C10.5834 5.57924 10.5078 5.39689 10.3734 5.26244C10.2389 5.12799 10.0566 5.05246 9.86644 5.05246C9.6763 5.05246 9.49396 5.12799 9.35951 5.26244C9.22506 5.39689 9.14953 5.57924 9.14953 5.76937C9.14953 5.95951 9.22506 6.14186 9.35951 6.27631C9.49396 6.41075 9.6763 6.48629 9.86644 6.48629C10.0566 6.48629 10.2389 6.41075 10.3734 6.27631C10.5078 6.14186 10.5834 5.95951 10.5834 5.76937ZM9.86644 9.35393C10.0566 9.35393 10.2389 9.2784 10.3734 9.14395C10.5078 9.00951 10.5834 8.82716 10.5834 8.63702C10.5834 8.44688 10.5078 8.26453 10.3734 8.13009C10.2389 7.99564 10.0566 7.92011 9.86644 7.92011C9.6763 7.92011 9.49396 7.99564 9.35951 8.13009C9.22506 8.26453 9.14953 8.44688 9.14953 8.63702C9.14953 8.82716 9.22506 9.00951 9.35951 9.14395C9.49396 9.2784 9.6763 9.35393 9.86644 9.35393ZM10.5834 11.5047C10.5834 11.3145 10.5078 11.1322 10.3734 10.9977C10.2389 10.8633 10.0566 10.7878 9.86644 10.7878C9.6763 10.7878 9.49396 10.8633 9.35951 10.9977C9.22506 11.1322 9.14953 11.3145 9.14953 11.5047C9.14953 11.6948 9.22506 11.8772 9.35951 12.0116C9.49396 12.146 9.6763 12.2216 9.86644 12.2216C10.0566 12.2216 10.2389 12.146 10.3734 12.0116C10.5078 11.8772 10.5834 11.6948 10.5834 11.5047ZM12.7341 12.2216C12.8282 12.2216 12.9215 12.203 13.0084 12.167C13.0954 12.131 13.1744 12.0782 13.241 12.0116C13.3076 11.945 13.3604 11.866 13.3964 11.779C13.4325 11.692 13.451 11.5988 13.451 11.5047C13.451 11.4105 13.4325 11.3173 13.3964 11.2303C13.3604 11.1433 13.3076 11.0643 13.241 10.9977C13.1744 10.9312 13.0954 10.8784 13.0084 10.8423C12.9215 10.8063 12.8282 10.7878 12.7341 10.7878C12.544 10.7878 12.3616 10.8633 12.2272 10.9977C12.0927 11.1322 12.0172 11.3145 12.0172 11.5047C12.0172 11.6948 12.0927 11.8772 12.2272 12.0116C12.3616 12.146 12.544 12.2216 12.7341 12.2216ZM12.0172 14.6113V17.4789H10.5834V14.6113H12.0172ZM9.62747 14.6113H8.19365V17.4789H9.62747V14.6113Z" fill="#838383" fill-opacity="0.8"/>
</svg>
